# xmcd CD database file
# Copyright (C) 1993-1997  Ti Kan
#
# Track frame offsets:
#	150
#	9875
#	22822
#	39260
#	51122
#	63572
#	77795
#	92552
#	106612
#	119460
#	134252
#	143512
#
# Disc length: 2162 seconds
#
# Revision: 1
# Processed by: cddbd v1.4b41PL1 Copyright (c) Steve Scherf et al.
# Submitted via: xmcd 2.1 PL1
#
DISCID=8708700c
DTITLE=Hot Rize - Untold Stories
DYEAR=1900
DGENRE=
TTITLE0=Are You Tired Of Me, My Darlin'
TTITLE1=Untold Stories
TTITLE2=Just Like You
TTITLE3=Country Blues
TTITLE4=Bluegrass Part Three
TTITLE5=Won't You Come and Sing For Me
TTITLE6=Life's Too Short
TTITLE7=You Don't Have To Move The Mountain
TTITLE8=Shadows In My Room
TTITLE9=Don't Make Me Believe
TTITLE10=Wild Ride
TTITLE11=Late In The Day
EXTD=
EXTT0=
EXTT1=
EXTT2=
EXTT3=
EXTT4=
EXTT5=
EXTT6=
EXTT7=
EXTT8=
EXTT9=
EXTT10=
EXTT11=
PLAYORDER=
